<?xml version="1.0" encoding="utf-8"?>
<!-- Generator: Adobe Illustrator 27.2.0, SVG Export Plug-In . SVG Version: 6.00 Build 0)  -->
<svg version="1.1" id="Layer_1" xmlns="http://www.w3.org/2000/svg" xmlns:xlink="http://www.w3.org/1999/xlink" x="0px" y="0px"
	 viewBox="0 0 48 48" style="enable-background:new 0 0 48 48;" xml:space="preserve">
<style type="text/css">
	.st0{fill:#2D4373;}
</style>
<path class="st0" d="M24,44c-0.9,0-1.7-0.2-2.4-0.7c-0.7-0.4-1.1-1-1.3-1.8h-0.7c-0.8,0-1.5-0.3-2.1-0.9c-0.6-0.6-0.9-1.3-0.9-2.1
	v-7.1c-2.2-1.4-3.9-3.3-5.2-5.5s-1.9-4.7-1.9-7.4c0-4,1.4-7.5,4.2-10.3S20,4,24,4s7.5,1.4,10.3,4.2s4.2,6.2,4.2,10.3
	c0,2.7-0.6,5.2-1.9,7.4c-1.3,2.2-3,4.1-5.2,5.5v7.1c0,0.8-0.3,1.5-0.9,2.1c-0.6,0.6-1.3,0.9-2.1,0.9h-0.7c-0.2,0.8-0.6,1.4-1.3,1.8
	C25.7,43.8,24.9,44,24,44z M19.6,38.5h8.8v-2.2h-8.8V38.5z M19.6,34.3h8.8v-2h-8.8V34.3z M19.1,29.4h3.7v-6.9l-4.6-4.6l1.6-1.5
	l4.2,4.2l4.2-4.2l1.5,1.5l-4.6,4.6v6.9h3.7c2-0.9,3.6-2.4,4.8-4.4c1.2-2,1.8-4.1,1.8-6.5c0-3.2-1.1-6-3.3-8.2S27.2,7,24,7
	c-3.2,0-6,1.1-8.2,3.3s-3.3,4.9-3.3,8.2c0,2.4,0.6,4.5,1.8,6.5S17.1,28.4,19.1,29.4z"/>
</svg>
