<?xml version="1.0" encoding="utf-8"?>
<!-- Generator: Adobe Illustrator 27.2.0, SVG Export Plug-In . SVG Version: 6.00 Build 0)  -->
<svg version="1.1" id="Layer_1" xmlns="http://www.w3.org/2000/svg" xmlns:xlink="http://www.w3.org/1999/xlink" x="0px" y="0px"
	 viewBox="0 0 48 48" style="enable-background:new 0 0 48 48;" xml:space="preserve">
<style type="text/css">
	.st0{fill:#8AC1C6;}
</style>
<path class="st0" d="M22,42v-3h17V23.8c0-1.9-0.4-3.8-1.2-5.6c-0.8-1.8-2-3.4-3.3-4.7c-1.4-1.4-3-2.5-4.8-3.3S25.9,9,24,9
	s-3.8,0.4-5.6,1.2c-1.8,0.8-3.4,1.9-4.8,3.3s-2.5,2.9-3.4,4.7C9.4,20,9,21.9,9,23.8V36H8c-1.1,0-2-0.4-2.8-1.2S4,33.1,4,32v-4
	c0-0.8,0.2-1.4,0.6-2c0.4-0.6,0.8-1.1,1.4-1.4l0.2-2.6c0.3-2.4,1-4.6,2.1-6.6s2.4-3.6,4.1-5s3.4-2.4,5.4-3.2S21.8,6,24,6
	c2.2,0,4.3,0.4,6.3,1.1s3.8,1.8,5.4,3.2c1.6,1.4,2.9,3,4,5c1.1,1.9,1.8,4.1,2.1,6.5l0.1,2.6c0.6,0.3,1.1,0.7,1.5,1.3S44,27,44,27.7
	v4.6c0,0.7-0.2,1.4-0.5,2s-0.8,1-1.5,1.3V39c0,0.8-0.3,1.5-0.9,2.1C40.5,41.7,39.8,42,39,42H22z M18,27.5c-0.4,0-0.8-0.1-1-0.5
	c-0.3-0.3-0.5-0.7-0.5-1.1c0-0.4,0.1-0.8,0.5-1.1c0.3-0.3,0.7-0.4,1.1-0.4c0.4,0,0.8,0.1,1.1,0.4s0.4,0.6,0.4,1.1
	c0,0.4-0.1,0.8-0.4,1C18.8,27.4,18.4,27.5,18,27.5z M30,27.5c-0.4,0-0.8-0.1-1-0.5c-0.3-0.3-0.5-0.7-0.5-1.1c0-0.4,0.1-0.8,0.5-1.1
	c0.3-0.3,0.7-0.4,1.1-0.4c0.4,0,0.8,0.1,1.1,0.4s0.4,0.6,0.4,1.1c0,0.4-0.1,0.8-0.4,1C30.8,27.4,30.4,27.5,30,27.5z M12.1,24.9
	c-0.1-2,0.1-3.8,0.8-5.4s1.6-3,2.8-4.1s2.5-2,4-2.6c1.5-0.6,3-0.9,4.5-0.9c3,0,5.6,1,7.6,2.9s3.3,4.3,3.8,7.2
	c-3.1,0-5.9-0.9-8.3-2.5c-2.4-1.6-4.2-3.8-5.5-6.4c-0.5,2.7-1.7,5.1-3.4,7.2S14.6,23.9,12.1,24.9z"/>
</svg>
