<?xml version="1.0" encoding="utf-8"?>
<!-- Generator: Adobe Illustrator 27.2.0, SVG Export Plug-In . SVG Version: 6.00 Build 0)  -->
<svg version="1.1" id="Layer_1" xmlns="http://www.w3.org/2000/svg" xmlns:xlink="http://www.w3.org/1999/xlink" x="0px" y="0px"
	 viewBox="0 0 48 48" style="enable-background:new 0 0 48 48;" xml:space="preserve">
<style type="text/css">
	.st0{fill:#2D4373;}
</style>
<path class="st0" d="M38.4,42L25.9,29.4l2.9-2.8l12.5,12.6L38.4,42z M9.4,42l-2.9-2.8L21,24.6l-5.3-5.4l-1.2,1.1l-2.2-2.2v4.2
	l-1.2,1.2L5,17.6l1.2-1.2h4.3L8.1,14l6.6-6.5c0.6-0.6,1.2-0.9,1.8-1.2C17.2,6.1,17.9,6,18.7,6c0.8,0,1.5,0.1,2.2,0.4
	c0.7,0.3,1.3,0.7,1.9,1.3L17.4,13l2.4,2.4l-1.2,1.2l5.2,5.2l6.1-6.1c-0.3-0.4-0.5-0.9-0.6-1.5c-0.1-0.6-0.2-1.2-0.2-1.8
	c0-1.8,0.6-3.3,1.9-4.6s2.8-1.9,4.6-1.9c0.5,0,0.9,0.1,1.3,0.2s0.6,0.2,0.9,0.4l-4.2,4.2l3.8,3.8l4.2-4.2c0.2,0.3,0.3,0.6,0.4,1
	S42,12,42,12.5c0,1.8-0.6,3.3-1.9,4.6c-1.3,1.3-2.8,1.9-4.6,1.9c-0.6,0-1.1,0-1.5-0.1s-0.8-0.2-1.2-0.4L9.4,42z"/>
</svg>
